<svg width="24" height="25" viewBox="0 0 24 25" fill="none" xmlns="http://www.w3.org/2000/svg">
<path d="M12 5.42229C14.403 5.42229 14.688 5.43129 15.637 5.47429C16.514 5.51429 16.991 5.66129 17.308 5.78429C17.728 5.94729 18.028 6.14229 18.343 6.45729C18.658 6.77229 18.853 7.07229 19.016 7.49229C19.139 7.80929 19.286 8.28629 19.326 9.16329C19.369 10.1123 19.378 10.3973 19.378 12.8003C19.378 15.2033 19.369 15.4883 19.326 16.4373C19.286 17.3143 19.139 17.7913 19.016 18.1083C18.853 18.5283 18.658 18.8283 18.343 19.1433C18.028 19.4583 17.728 19.6533 17.308 19.8163C16.991 19.9393 16.514 20.0863 15.637 20.1263C14.688 20.1693 14.404 20.1783 12 20.1783C9.596 20.1783 9.312 20.1693 8.363 20.1263C7.486 20.0863 7.009 19.9393 6.692 19.8163C6.272 19.6533 5.972 19.4583 5.657 19.1433C5.342 18.8283 5.147 18.5283 4.984 18.1083C4.861 17.7913 4.714 17.3143 4.674 16.4373C4.631 15.4883 4.622 15.2033 4.622 12.8003C4.622 10.3973 4.631 10.1123 4.674 9.16329C4.714 8.28629 4.861 7.80929 4.984 7.49229C5.147 7.07229 5.342 6.77229 5.657 6.45729C5.972 6.14229 6.272 5.94729 6.692 5.78429C7.009 5.66129 7.486 5.51429 8.363 5.47429C9.312 5.43129 9.597 5.42229 12 5.42229ZM12 3.80029C9.556 3.80029 9.249 3.81029 8.289 3.85429C7.331 3.89829 6.677 4.05029 6.105 4.27229C5.513 4.50229 5.011 4.81029 4.511 5.31129C4.011 5.81129 3.703 6.31329 3.473 6.90529C3.25 7.47729 3.098 8.13129 3.054 9.08929C3.01 10.0493 3 10.3563 3 12.8003C3 15.2443 3.01 15.5513 3.054 16.5113C3.098 17.4693 3.25 18.1233 3.472 18.6963C3.702 19.2883 4.01 19.7903 4.51 20.2903C5.01 20.7903 5.512 21.0983 6.104 21.3283C6.676 21.5503 7.331 21.7033 8.289 21.7463C9.249 21.7903 9.556 21.8003 12 21.8003C14.444 21.8003 14.751 21.7903 15.711 21.7463C16.669 21.7023 17.323 21.5503 17.896 21.3283C18.488 21.0983 18.99 20.7903 19.49 20.2903C19.99 19.7903 20.298 19.2883 20.528 18.6963C20.75 18.1243 20.903 17.4693 20.946 16.5113C20.99 15.5513 21 15.2443 21 12.8003C21 10.3563 20.99 10.0493 20.946 9.08929C20.902 8.13129 20.75 7.47729 20.528 6.90429C20.298 6.31229 19.99 5.81029 19.49 5.31029C18.99 4.81029 18.488 4.50229 17.896 4.27229C17.324 4.05029 16.669 3.89729 15.711 3.85429C14.751 3.81029 14.444 3.80029 12 3.80029ZM12 8.17829C9.448 8.17829 7.378 10.2473 7.378 12.8003C7.378 15.3533 9.448 17.4223 12 17.4223C14.552 17.4223 16.622 15.3533 16.622 12.8003C16.622 10.2473 14.552 8.17829 12 8.17829ZM12 15.8003C10.343 15.8003 9 14.4573 9 12.8003C9 11.1433 10.343 9.80029 12 9.80029C13.657 9.80029 15 11.1433 15 12.8003C15 14.4573 13.657 15.8003 12 15.8003ZM16.804 6.91629C16.208 6.91629 15.724 7.40029 15.724 7.99629C15.724 8.59229 16.208 9.07629 16.804 9.07629C17.4 9.07629 17.884 8.59229 17.884 7.99629C17.884 7.40029 17.401 6.91629 16.804 6.91629Z" fill="white"/>
</svg>
